<?xml version="1.0" standalone="no"?>
<!DOCTYPE svg PUBLIC "-//W3C//DTD SVG 20010904//EN"
 "http://www.w3.org/TR/2001/REC-SVG-20010904/DTD/svg10.dtd">
<svg version="1.0" xmlns="http://www.w3.org/2000/svg"
 width="144.000000pt" height="120.000000pt" viewBox="0 0 144.000000 120.000000"
 preserveAspectRatio="xMidYMid meet">

<g transform="translate(0.000000,120.000000) scale(0.100000,-0.100000)"
fill="#000000" stroke="none">
<path d="M985 1051 c-147 -32 -275 -65 -294 -76 -66 -39 -71 -62 -71 -315 0
-127 -5 -242 -11 -263 -13 -50 -49 -71 -163 -97 -164 -37 -161 -36 -180 -78
-10 -21 -28 -52 -41 -68 l-24 -29 -1 58 0 58 -49 -7 c-45 -6 -52 -4 -76 20
l-26 26 3 176 c3 174 3 176 29 198 18 16 85 36 255 75 266 61 257 58 250 69
-5 9 -436 -87 -489 -109 -58 -24 -67 -55 -67 -236 0 -89 4 -173 10 -187 13
-34 64 -60 107 -53 l33 6 0 -67 0 -66 44 43 c24 24 51 60 61 80 17 38 17 38
138 65 218 50 210 37 217 371 6 278 9 291 73 320 40 18 539 125 583 125 23 0
39 -8 53 -26 19 -24 21 -40 21 -155 0 -134 -7 -169 -43 -208 -29 -30 -45 -36
-206 -71 -75 -17 -146 -32 -158 -35 -21 -5 -23 -11 -23 -76 0 -85 -8 -86 -62
-7 l-38 55 -76 -18 c-42 -10 -79 -21 -82 -24 -14 -14 11 -14 69 0 35 8 69 15
74 15 6 0 24 -21 40 -46 36 -55 83 -92 90 -72 2 7 6 44 7 83 l3 70 140 30
c195 43 191 42 228 75 49 42 59 91 55 249 -3 131 -3 133 -31 157 -40 34 -72
31 -372 -35z"/>
<path d="M1174 940 c-31 -12 -64 -59 -64 -89 0 -43 22 -65 65 -65 73 0 123 96
75 144 -21 21 -42 24 -76 10z m60 -42 c28 -46 -48 -117 -80 -73 -19 26 -18 38
7 69 24 30 55 32 73 4z"/>
<path d="M1025 904 c-5 -1 -22 -5 -37 -8 -28 -6 -28 -8 -28 -81 0 -81 3 -85
57 -64 48 18 73 49 73 90 0 20 -6 41 -12 46 -17 13 -41 21 -53 17z m29 -46
c14 -24 -3 -69 -31 -79 -22 -8 -23 -6 -23 40 0 26 3 51 7 55 11 11 35 3 47
-16z"/>
<path d="M910 834 l0 -46 -50 36 -50 36 0 -80 c0 -65 3 -78 14 -74 9 3 16 22
18 46 l3 40 42 -31 c24 -17 45 -31 48 -31 3 0 5 34 5 75 0 60 -3 75 -15 75
-11 0 -15 -12 -15 -46z"/>
<path d="M747 843 c-4 -3 -7 -39 -7 -80 0 -58 3 -73 15 -73 12 0 15 16 15 80
0 73 -6 91 -23 73z"/>
<path d="M505 738 c-22 -5 -116 -28 -210 -50 -225 -52 -215 -42 -215 -237 0
-180 2 -186 83 -179 l57 5 0 -30 c0 -24 3 -27 14 -18 8 7 17 22 20 35 5 21 20
27 118 51 226 56 217 41 210 328 -2 119 2 114 -77 95z m23 -120 c-3 -7 -19
-16 -36 -20 -24 -7 -32 -14 -32 -32 0 -19 4 -22 30 -18 23 3 30 0 30 -12 0
-10 -9 -16 -24 -16 -14 0 -28 -5 -32 -12 -5 -8 3 -9 29 -5 28 4 37 2 37 -8 0
-19 -7 -22 -63 -30 l-48 -7 3 78 c3 74 4 79 28 85 42 12 82 10 78 -3z m-128
-18 c0 -6 -11 -33 -25 -60 -14 -27 -25 -60 -25 -74 0 -13 -7 -26 -15 -30 -11
-4 -15 2 -15 20 0 14 -13 45 -30 69 -35 51 -36 55 -11 55 10 0 28 -14 38 -31
l20 -30 13 33 c7 18 18 39 23 46 11 15 27 16 27 2z m-161 -39 c8 -6 12 -19 9
-35 -3 -15 -1 -29 3 -32 15 -9 10 -50 -9 -67 -9 -9 -37 -20 -60 -25 l-43 -10
3 81 3 82 30 6 c44 10 49 10 64 0z"/>
<path d="M180 515 c0 -13 4 -14 20 -5 11 6 20 13 20 15 0 3 -9 5 -20 5 -11 0
-20 -7 -20 -15z"/>
<path d="M187 473 c-4 -3 -7 -14 -7 -24 0 -13 5 -17 18 -12 20 8 33 24 26 35
-6 10 -28 10 -37 1z"/>
</g>
</svg>
