<?xml version="1.0" standalone="no"?>
<!DOCTYPE svg PUBLIC "-//W3C//DTD SVG 20010904//EN"
 "http://www.w3.org/TR/2001/REC-SVG-20010904/DTD/svg10.dtd">
<svg version="1.0" xmlns="http://www.w3.org/2000/svg"
 width="512.000000pt" height="512.000000pt" viewBox="0 0 512.000000 512.000000"
 preserveAspectRatio="xMidYMid meet">

<g transform="translate(0.000000,512.000000) scale(0.100000,-0.100000)"
fill="#000000" stroke="none">
<path d="M2240 4640 l0 -400 80 0 80 0 1 268 0 267 135 -267 134 -268 105 0
105 0 0 400 0 400 -80 0 -80 0 -1 -267 0 -268 -135 268 -134 267 -105 0 -105
0 0 -400z"/>
<path d="M1938 4795 c-256 -71 -564 -223 -768 -381 l-73 -56 -121 120 c-67 66
-137 128 -156 138 -52 26 -153 24 -206 -3 -79 -42 -134 -129 -134 -213 0 -79
19 -110 153 -246 l128 -132 -55 -72 c-117 -151 -249 -391 -320 -583 -37 -99
-86 -269 -86 -298 0 -12 19 -20 72 -32 40 -9 74 -14 76 -13 1 2 14 43 27 92
68 255 179 489 337 709 29 41 57 75 62 75 5 0 55 -44 110 -98 105 -101 142
-122 218 -122 124 0 238 115 238 240 0 76 -27 125 -127 230 -91 96 -95 102
-77 116 11 8 71 50 135 92 191 128 409 227 633 287 49 14 90 26 92 27 1 2 -4
36 -13 76 -19 84 -14 83 -145 47z m-1180 -329 c39 -21 508 -497 517 -524 18
-59 -46 -116 -103 -93 -37 15 -518 498 -527 529 -13 44 26 99 73 101 7 1 25
-5 40 -13z"/>
<path d="M3041 4763 c-7 -32 -15 -66 -17 -75 -4 -13 5 -19 38 -28 193 -48 415
-137 576 -231 115 -67 262 -171 262 -184 0 -6 -43 -53 -95 -105 -99 -99 -125
-144 -125 -220 0 -126 114 -240 239 -240 79 0 126 27 224 126 50 51 97 94 102
94 6 0 37 -38 70 -85 129 -182 225 -374 297 -590 22 -66 42 -122 44 -124 2 -2
35 4 74 14 82 20 81 18 44 137 -76 241 -215 511 -360 698 l-55 72 128 132
c134 136 153 167 153 246 0 84 -55 172 -134 212 -54 28 -156 30 -206 4 -19
-10 -90 -72 -156 -138 l-122 -120 -63 50 c-106 82 -236 161 -392 238 -147 72
-379 156 -468 169 l-45 7 -13 -59z m1393 -294 c30 -14 50 -59 41 -91 -9 -31
-490 -514 -527 -529 -57 -23 -121 34 -103 93 8 26 464 490 510 519 35 22 45
23 79 8z"/>
<path d="M2197 3826 c-21 -8 -47 -22 -59 -33 -47 -42 -48 -52 -48 -413 l0
-340 -322 0 c-178 0 -341 -5 -362 -10 -51 -11 -105 -65 -116 -116 -5 -21 -10
-128 -10 -237 l0 -197 401 2 401 3 75 210 c41 116 84 239 97 274 25 71 46 92
74 75 14 -9 20 -42 33 -195 38 -426 43 -479 46 -475 5 4 16 44 66 228 34 127
48 158 72 158 23 0 36 -28 61 -132 14 -57 28 -110 31 -118 7 -20 15 7 58 195
40 177 52 212 71 219 44 17 53 -12 89 -299 14 -110 28 -213 32 -230 6 -29 7
-28 23 23 9 30 23 58 31 63 8 5 210 9 457 9 l442 0 0 193 c0 105 -5 210 -10
231 -11 51 -65 105 -116 116 -21 5 -182 10 -356 10 l-317 0 -3 343 c-3 331 -4
343 -25 377 -12 19 -37 44 -55 55 -31 19 -53 20 -378 22 -274 2 -353 0 -383
-11z"/>
<path d="M4560 2560 l0 -400 240 0 240 0 0 80 0 80 -160 0 -160 0 0 80 0 80
160 0 160 0 0 80 0 80 -160 0 -160 0 0 80 0 80 160 0 160 0 0 80 0 80 -240 0
-240 0 0 -400z"/>
<path d="M152 2880 c-34 -4 -64 -9 -67 -11 -4 -4 68 -683 80 -756 l6 -33 108
0 108 0 40 198 c28 145 43 197 53 197 10 0 25 -52 53 -197 l40 -198 108 0 108
0 6 33 c11 65 84 751 80 755 -5 5 -148 23 -152 19 -1 -2 -14 -99 -27 -216 -13
-116 -26 -214 -28 -216 -2 -3 -12 38 -22 90 l-18 95 -148 0 -148 0 -18 -100
c-9 -55 -19 -98 -21 -96 -3 3 -52 410 -53 439 0 4 -6 6 -12 6 -7 -1 -41 -5
-76 -9z"/>
<path d="M2237 2690 c-27 -74 -61 -166 -76 -205 l-27 -70 -428 -3 -429 -2 5
-108 c5 -122 19 -159 78 -195 34 -21 45 -22 383 -25 l347 -3 0 -343 c0 -339 0
-343 23 -376 12 -19 38 -43 57 -54 34 -20 50 -21 395 -21 353 0 361 0 395 22
19 12 44 37 55 55 19 31 20 54 23 375 l3 342 342 3 c321 3 344 4 375 23 59 36
75 74 80 197 l5 108 -428 -2 -427 -3 -14 -40 c-8 -22 -23 -74 -35 -115 -25
-89 -34 -102 -68 -98 -29 3 -25 -13 -75 343 -9 66 -20 131 -23 145 l-6 25 -8
-30 c-5 -16 -24 -96 -43 -176 -39 -168 -48 -191 -79 -187 -25 3 -42 49 -72
191 -22 106 -24 104 -71 -72 -74 -278 -77 -286 -107 -289 -21 -3 -29 2 -35 20
-5 13 -17 129 -27 258 -9 129 -23 282 -29 339 l-12 105 -47 -134z"/>
<path d="M4635 1963 c-56 -192 -164 -424 -280 -597 -88 -131 -99 -146 -111
-146 -5 0 -46 38 -91 85 -87 89 -135 120 -201 131 -135 22 -272 -97 -272 -236
0 -76 26 -121 125 -220 52 -52 95 -99 95 -105 0 -13 -123 -101 -232 -167 -160
-96 -368 -184 -550 -233 -50 -13 -92 -26 -94 -27 -1 -2 4 -36 13 -76 12 -53
20 -72 32 -72 29 0 199 49 298 86 190 71 433 204 583 320 l72 55 132 -128
c136 -134 167 -153 246 -153 124 0 240 116 240 240 0 79 -19 110 -152 246
l-129 131 63 84 c86 114 157 233 234 393 61 127 144 355 144 395 0 14 -14 22
-65 35 -35 9 -68 16 -74 16 -5 0 -17 -26 -26 -57z m-677 -697 c39 -21 508
-497 517 -524 18 -59 -46 -116 -103 -93 -37 15 -518 498 -527 529 -13 44 26
99 73 101 7 1 25 -5 40 -13z"/>
<path d="M407 1928 c-81 -25 -80 -17 -21 -175 74 -199 194 -418 322 -588 l52
-68 -128 -131 c-133 -136 -152 -167 -152 -246 0 -124 116 -240 240 -240 79 0
110 19 246 153 l132 128 72 -55 c143 -111 364 -234 558 -310 94 -37 292 -96
322 -96 13 0 21 18 33 72 9 40 14 74 13 76 -2 1 -44 14 -94 27 -256 68 -565
220 -740 362 l-42 35 94 99 c69 72 98 112 110 146 63 185 -95 358 -285 313
-47 -12 -65 -25 -155 -112 -55 -54 -105 -98 -110 -98 -12 0 -102 127 -171 242
-72 119 -133 248 -179 382 -20 58 -39 106 -43 105 -3 0 -37 -10 -74 -21z m827
-659 c30 -14 50 -59 41 -91 -9 -31 -490 -514 -527 -529 -57 -23 -121 34 -103
93 8 26 464 490 510 519 35 22 45 23 79 8z"/>
<path d="M2240 744 c0 -170 9 -204 75 -269 63 -64 100 -75 244 -75 105 0 113
-1 136 -25 21 -20 25 -34 25 -80 l0 -55 -135 0 c-131 0 -137 1 -160 25 -14 13
-25 31 -25 40 0 12 -15 15 -80 15 -90 0 -90 0 -68 -74 16 -55 99 -138 154
-154 27 -8 117 -12 258 -12 l216 0 0 136 c0 170 -9 204 -75 269 -63 64 -100
75 -244 75 -105 0 -113 1 -136 25 -21 20 -25 34 -25 80 l0 55 135 0 c131 0
137 -1 160 -25 14 -13 25 -31 25 -40 0 -12 15 -15 80 -15 89 0 90 0 68 72 -6
22 -31 62 -55 88 -66 74 -94 80 -355 80 l-218 0 0 -136z"/>
</g>
</svg>
