<?xml version="1.0" standalone="no"?>
<!DOCTYPE svg PUBLIC "-//W3C//DTD SVG 20010904//EN"
 "http://www.w3.org/TR/2001/REC-SVG-20010904/DTD/svg10.dtd">
<svg version="1.0" xmlns="http://www.w3.org/2000/svg"
 width="206.000000pt" height="206.000000pt" viewBox="0 0 206.000000 206.000000"
 preserveAspectRatio="xMidYMid meet">

<g transform="translate(0.000000,206.000000) scale(0.100000,-0.100000)"
fill="#000000" stroke="none">
<path d="M920 2023 c-180 -19 -380 -105 -523 -225 -173 -145 -278 -314 -340
-552 -32 -126 -30 -328 6 -459 54 -197 141 -341 291 -485 172 -163 382 -254
622 -269 413 -25 803 221 974 616 61 141 73 213 68 419 -5 161 -8 184 -33 257
-37 107 -93 216 -150 293 -212 289 -561 443 -915 405z m-58 -693 c44 -13 94
-68 103 -116 8 -47 -24 -118 -67 -144 -20 -12 -50 -20 -78 -20 -150 0 -194
199 -60 268 51 25 52 25 102 12z m722 -27 c16 -22 17 -30 6 -66 l-12 -42 -18
36 c-10 19 -32 50 -48 67 -23 25 -26 32 -13 34 33 7 67 -5 85 -29z m-1138 -58
c22 -47 43 -84 48 -82 5 2 25 40 45 85 32 72 39 82 62 82 25 0 26 -2 38 -102
7 -57 15 -120 18 -140 5 -37 5 -38 -25 -38 l-31 0 -7 80 c-3 44 -10 80 -13 80
-4 0 -20 -28 -37 -62 -42 -89 -62 -89 -105 -3 -34 70 -49 71 -49 4 0 -20 -3
-51 -6 -68 -6 -26 -11 -31 -36 -31 -23 0 -28 4 -24 18 2 9 10 67 16 127 14
135 14 135 43 135 21 0 30 -13 63 -85z m656 2 l48 -82 0 83 0 82 30 0 30 0 0
-141 0 -140 -27 3 c-23 2 -36 17 -73 83 l-45 80 -3 -82 -3 -83 -29 0 -30 0 0
140 0 140 28 0 c23 0 33 -11 74 -83z m348 58 c0 -24 -3 -25 -60 -25 -60 0 -60
0 -60 -29 0 -33 14 -41 71 -41 32 0 39 -3 39 -19 0 -17 -8 -20 -52 -23 -52 -3
-53 -4 -56 -35 l-3 -33 60 0 c58 0 61 -1 61 -25 0 -25 -1 -25 -90 -25 l-90 0
0 140 0 140 90 0 c89 0 90 0 90 -25z m266 -17 c-41 -48 -66 -119 -66 -190 0
-47 -1 -48 -30 -48 -29 0 -30 2 -30 43 0 69 36 178 72 225 6 6 28 12 50 12
l40 0 -36 -42z m-1201 -323 c14 -13 25 -33 25 -45 0 -28 -46 -27 -69 2 -20 23
-47 20 -58 -8 -7 -19 8 -30 59 -44 83 -23 107 -120 37 -155 -48 -25 -106 -19
-140 14 -16 16 -29 37 -29 45 0 24 49 20 77 -6 20 -18 26 -20 49 -10 38 18 27
43 -27 61 -78 27 -105 62 -87 114 14 38 45 57 96 57 32 0 49 -6 67 -25z m192
-67 l42 -91 42 91 c38 82 45 92 69 92 26 0 27 -1 39 -102 6 -57 14 -122 18
-145 6 -43 5 -43 -25 -43 -35 0 -36 2 -48 105 l-6 60 -31 -62 c-27 -54 -35
-63 -58 -63 -22 0 -31 9 -55 60 -32 68 -39 64 -49 -32 -6 -67 -7 -68 -36 -68
-35 0 -34 -5 -14 155 8 66 15 123 15 128 0 4 12 7 28 7 24 -1 31 -9 69 -92z
m454 -46 c27 -74 49 -138 49 -144 0 -5 -14 -8 -32 -6 -27 2 -34 9 -42 36 -8
30 -11 32 -58 32 -47 0 -50 -2 -64 -35 -12 -29 -19 -35 -44 -35 -17 0 -30 3
-30 8 0 4 16 50 36 102 19 52 42 114 51 138 14 41 17 43 50 40 l35 -3 49 -133z
m260 109 c40 -41 40 -91 -1 -133 -16 -16 -30 -32 -30 -34 0 -3 11 -20 24 -37
41 -56 41 -57 -1 -57 -35 0 -40 4 -68 50 -16 28 -33 50 -37 50 -4 0 -8 -22 -8
-50 0 -49 -1 -50 -30 -50 l-30 0 0 145 0 145 76 0 c70 0 78 -2 105 -29z m269
-1 c0 -28 -2 -30 -40 -30 l-40 0 0 -115 0 -115 -30 0 -30 0 0 115 0 115 -40 0
c-38 0 -40 2 -40 30 l0 30 110 0 110 0 0 -30z"/>
<path d="M783 1270 c-27 -11 -43 -40 -43 -80 0 -43 14 -65 50 -80 89 -37 160
90 83 150 -27 21 -54 24 -90 10z"/>
<path d="M1062 872 c-16 -52 -16 -52 14 -52 24 0 25 2 19 33 -12 56 -21 61
-33 19z"/>
<path d="M1300 894 c0 -34 1 -35 36 -32 71 6 68 68 -2 68 -32 0 -34 -2 -34
-36z"/>
</g>
</svg>
