<?xml version="1.0" standalone="no"?>
<!DOCTYPE svg PUBLIC "-//W3C//DTD SVG 20010904//EN"
 "http://www.w3.org/TR/2001/REC-SVG-20010904/DTD/svg10.dtd">
<svg version="1.0" xmlns="http://www.w3.org/2000/svg"
 width="183.000000pt" height="120.000000pt" viewBox="0 0 183.000000 120.000000"
 preserveAspectRatio="xMidYMid meet">

<g transform="translate(0.000000,120.000000) scale(0.100000,-0.100000)"
fill="#000000" stroke="none">
<path d="M490 1016 c-120 -22 -236 -110 -294 -224 -81 -159 -43 -370 88 -490
174 -159 425 -156 586 7 l55 56 55 -55 c136 -138 347 -164 516 -65 55 32 127
113 159 179 29 58 48 157 39 198 -11 53 -30 58 -240 58 -178 0 -193 -1 -218
-21 -31 -25 -34 -66 -7 -100 18 -23 26 -24 165 -27 80 -2 146 -6 146 -8 0 -16
-43 -84 -71 -112 -110 -111 -269 -115 -384 -10 -64 59 -90 117 -89 203 0 158
120 275 279 275 86 0 139 -23 206 -85 54 -51 94 -58 124 -25 76 84 -105 241
-295 257 -125 11 -243 -33 -334 -122 l-55 -55 -52 51 c-63 62 -144 103 -230
118 -75 13 -64 13 -149 -3z m172 -144 c69 -25 132 -82 163 -149 24 -50 27 -66
23 -127 -6 -86 -30 -137 -90 -192 -61 -57 -120 -77 -205 -72 -37 2 -85 12
-105 22 -56 27 -116 94 -138 154 -83 220 133 443 352 364z"/>
</g>
</svg>
