<?xml version="1.0" standalone="no"?>
<!DOCTYPE svg PUBLIC "-//W3C//DTD SVG 20010904//EN"
 "http://www.w3.org/TR/2001/REC-SVG-20010904/DTD/svg10.dtd">
<svg version="1.0" xmlns="http://www.w3.org/2000/svg"
 width="200.000000pt" height="200.000000pt" viewBox="0 0 200.000000 200.000000"
 preserveAspectRatio="xMidYMid meet">

<g transform="translate(0.000000,200.000000) scale(0.100000,-0.100000)"
fill="#000000" stroke="none">
<path d="M953 1480 c-44 -18 -43 -98 2 -118 50 -23 95 6 95 60 0 48 -49 78
-97 58z m72 -60 c0 -12 -9 -29 -20 -36 -18 -12 -24 -11 -43 2 -12 8 -22 24
-22 34 0 10 10 26 22 34 19 13 25 14 43 2 11 -7 20 -24 20 -36z"/>
<path d="M614 1384 c-58 -21 -120 -77 -151 -138 -38 -73 -38 -179 0 -252 109
-212 411 -203 511 15 63 141 -16 326 -162 375 -56 20 -143 19 -198 0z m211
-118 c43 -33 75 -95 75 -146 0 -51 -32 -113 -76 -146 -33 -26 -46 -29 -109
-29 -63 0 -76 3 -109 29 -70 53 -93 143 -57 221 34 75 90 107 177 103 49 -3
69 -10 99 -32z"/>
<path d="M997 754 c-14 -15 -6 -34 14 -34 14 0 19 5 17 17 -3 18 -20 27 -31
17z"/>
<path d="M1287 754 c-14 -14 -7 -35 11 -32 9 2 17 10 17 17 0 16 -18 25 -28
15z"/>
<path d="M1360 715 c0 -8 -4 -15 -10 -15 -5 0 -10 -7 -10 -15 0 -8 5 -15 10
-15 6 0 10 -15 10 -34 0 -38 21 -66 51 -66 22 0 26 25 4 34 -9 3 -15 18 -15
36 0 20 5 30 15 30 8 0 15 7 15 15 0 8 -7 15 -15 15 -8 0 -15 7 -15 15 0 8 -9
15 -20 15 -11 0 -20 -7 -20 -15z"/>
<path d="M460 608 c0 -72 3 -88 15 -88 10 0 15 10 15 31 0 28 3 31 24 25 51
-13 90 54 56 97 -16 21 -28 25 -65 25 l-45 -1 0 -89z m88 33 c4 -29 -15 -43
-40 -30 -21 11 -23 30 -6 47 19 19 43 10 46 -17z"/>
<path d="M610 639 c0 -46 3 -59 15 -59 9 0 15 10 15 26 0 33 17 64 35 64 8 0
15 6 15 14 0 9 -13 13 -40 13 l-40 0 0 -58z"/>
<path d="M720 680 c-27 -27 -25 -56 5 -86 18 -18 31 -23 48 -19 28 9 57 42 57
66 0 27 -35 59 -65 59 -14 0 -34 -9 -45 -20z m69 -24 c16 -20 3 -46 -24 -46
-13 0 -26 7 -29 16 -7 19 10 44 29 44 7 0 18 -6 24 -14z"/>
<path d="M846 688 c4 -7 13 -20 21 -29 11 -14 10 -20 -7 -42 -11 -14 -20 -28
-20 -31 0 -14 40 -5 49 12 10 16 12 16 25 0 7 -10 23 -18 35 -18 l22 0 -22 29
c-21 28 -21 31 -5 55 20 32 20 36 -3 36 -10 0 -22 -7 -25 -16 -6 -16 -8 -16
-24 0 -22 19 -57 22 -46 4z"/>
<path d="M990 640 c0 -53 2 -60 20 -60 18 0 20 7 20 60 0 53 -2 60 -20 60 -18
0 -20 -7 -20 -60z"/>
<path d="M1060 639 c0 -46 3 -59 15 -59 8 0 16 6 16 13 1 6 3 19 4 27 1 8 3
23 4 33 1 21 27 23 35 1 3 -9 6 -29 6 -45 0 -48 28 -37 32 13 2 31 8 44 21 46
14 3 17 -4 17 -42 0 -39 3 -46 20 -46 17 0 20 7 20 48 0 26 -5 53 -12 60 -15
15 -55 16 -63 2 -4 -7 -11 -8 -18 -2 -7 5 -31 10 -54 9 l-43 0 0 -58z"/>
<path d="M1280 640 c0 -45 4 -60 14 -60 9 0 15 14 17 38 6 54 0 82 -17 82 -11
0 -14 -15 -14 -60z"/>
<path d="M1450 696 c0 -2 11 -28 25 -58 31 -66 31 -76 0 -88 -14 -5 -25 -14
-25 -20 0 -14 56 -12 67 3 17 21 67 157 60 163 -13 13 -35 -6 -42 -35 -9 -40
-18 -39 -34 4 -8 24 -19 35 -32 35 -10 0 -19 -2 -19 -4z"/>
</g>
</svg>
